<?xml version="1.0" encoding="iso-8859-1"?>
<!-- Generator: Adobe Illustrator 19.0.0, SVG Export Plug-In . SVG Version: 6.00 Build 0)  -->
<svg version="1.1" id="Layer_1" xmlns="http://www.w3.org/2000/svg" xmlns:xlink="http://www.w3.org/1999/xlink" x="0px" y="0px"
	 viewBox="0 0 511.993 511.993" style="enable-background:new 0 0 511.993 511.993;" xml:space="preserve">
<circle style="fill:#3C3B41;" cx="255.996" cy="255.996" r="255.996"/>
<path style="fill:#171719;" d="M505.507,313.53L304.658,112.68c-18.67-19.219-43.392-39.142-76.095-58.704
	c6.562,13.565,10.49,30.678,10.49,49.298c0,44.002-21.87,79.672-48.848,79.672c-1.853,0-3.678-0.178-5.477-0.506l-35.437-35.659
	c-8.095,13.814-48.86,87.805-41.322,164.745c3.727,38.042,20.407,65.591,42.408,86.46l113.868,113.868
	C382.181,508.122,479.993,424.632,505.507,313.53z"/>
<path style="fill:#FFA91F;" d="M373.975,197.153c0,0,4.212,32.658-13.57,45.761c0,0,19.576-98.368-131.842-188.937
	c6.562,13.565,10.49,30.678,10.49,49.298c0,44.002-21.87,79.672-48.848,79.672c-17.132,0-32.195-14.396-40.913-36.165
	c-8.095,13.814-48.861,87.805-41.322,164.745c9.109,92.981,95.575,123.305,148.064,146.497c0,0,88.293-22.737,128.707-90.326
	C422.654,304.284,400.352,223.53,373.975,197.153z"/>
<path style="fill:#FF8800;" d="M373.975,197.153c0,0,4.212,32.658-13.57,45.761c0,0,17.102-85.966-104.373-171.161v386.271
	c0,0,88.293-22.737,128.707-90.326C422.654,304.284,400.352,223.53,373.975,197.153z"/>
<path style="fill:#FFE670;" d="M256.031,195.678c0,0,69.109,60.017,52.491,129.434c0,0,28.697-16.939,40.92-49.336
	c0,0,14.284,119.429-93.41,149.158c0,0-78.858-29.652-76.599-103.756c0,0,18.383,22.935,31.219,26.68c0,0-10.385-24.364,0.274-54.7
	C222.37,260.577,240.532,241.166,256.031,195.678z"/>
<path style="fill:#FFCF00;" d="M349.442,275.775c-12.223,32.399-40.92,49.336-40.92,49.336
	c16.617-69.417-52.491-129.434-52.491-129.434v229.256C363.725,395.204,349.442,275.775,349.442,275.775z"/>
<g>
</g>
<g>
</g>
<g>
</g>
<g>
</g>
<g>
</g>
<g>
</g>
<g>
</g>
<g>
</g>
<g>
</g>
<g>
</g>
<g>
</g>
<g>
</g>
<g>
</g>
<g>
</g>
<g>
</g>
</svg>
