<?xml version="1.0" encoding="UTF-8" standalone="no"?>
<!-- Created with Inkscape (http://www.inkscape.org/) -->

<svg
   xmlns:dc="http://purl.org/dc/elements/1.1/"
   xmlns:cc="http://creativecommons.org/ns#"
   xmlns:rdf="http://www.w3.org/1999/02/22-rdf-syntax-ns#"
   xmlns:svg="http://www.w3.org/2000/svg"
   xmlns="http://www.w3.org/2000/svg"
   xmlns:xlink="http://www.w3.org/1999/xlink"
   xmlns:sodipodi="http://sodipodi.sourceforge.net/DTD/sodipodi-0.dtd"
   xmlns:inkscape="http://www.inkscape.org/namespaces/inkscape"
   width="50mm"
   height="45mm"
   viewBox="0 0 177.16536 159.44881"
   id="svg2"
   version="1.1"
   inkscape:version="0.91 r13725"
   sodipodi:docname="sticker.svg"
   inkscape:export-filename="G:\_Studi controllo stufa\images\sticker.png"
   inkscape:export-xdpi="287.86667"
   inkscape:export-ydpi="287.86667">
  <defs
     id="defs4">
    <linearGradient
       inkscape:collect="always"
       id="linearGradient5666">
      <stop
         style="stop-color:#ff0300;stop-opacity:1"
         offset="0"
         id="stop5668" />
      <stop
         style="stop-color:#ffde00;stop-opacity:0"
         offset="1"
         id="stop5670" />
    </linearGradient>
    <linearGradient
       inkscape:collect="always"
       xlink:href="#linearGradient5666"
       id="linearGradient5674"
       x1="292.85715"
       y1="1068.7908"
       x2="291.42859"
       y2="888.79077"
       gradientUnits="userSpaceOnUse" />
  </defs>
  <sodipodi:namedview
     id="base"
     pagecolor="#ffffff"
     bordercolor="#666666"
     borderopacity="1.0"
     inkscape:pageopacity="0.0"
     inkscape:pageshadow="2"
     inkscape:zoom="1.4"
     inkscape:cx="203.82514"
     inkscape:cy="95.68455"
     inkscape:document-units="px"
     inkscape:current-layer="layer1"
     showgrid="false"
     inkscape:window-width="1366"
     inkscape:window-height="746"
     inkscape:window-x="-8"
     inkscape:window-y="-8"
     inkscape:window-maximized="1" />
  <metadata
     id="metadata7">
    <rdf:RDF>
      <cc:Work
         rdf:about="">
        <dc:format>image/svg+xml</dc:format>
        <dc:type
           rdf:resource="http://purl.org/dc/dcmitype/StillImage" />
        <dc:title></dc:title>
      </cc:Work>
    </rdf:RDF>
  </metadata>
  <g
     inkscape:label="Layer 1"
     inkscape:groupmode="layer"
     id="layer1"
     transform="translate(0,-892.91339)">
    <rect
       style="opacity:1;fill:url(#linearGradient5674);fill-opacity:1;fill-rule:nonzero;stroke:none;stroke-width:1.79999995;stroke-linecap:round;stroke-linejoin:round;stroke-miterlimit:4;stroke-dasharray:none;stroke-dashoffset:0;stroke-opacity:1"
       id="rect4222"
       width="177.16536"
       height="159.44882"
       x="0"
       y="892.91339" />
    <g
       id="g4185"
       transform="matrix(0.16572358,0,0,0.16572358,46.158103,897.79476)">
      <circle
         id="circle4137"
         r="255.996"
         cy="255.996"
         cx="255.996"
         style="fill:#3c3b41" />
      <path
         id="path4139"
         d="M 505.507,313.53 304.658,112.68 c -18.67,-19.219 -43.392,-39.142 -76.095,-58.704 6.562,13.565 10.49,30.678 10.49,49.298 0,44.002 -21.87,79.672 -48.848,79.672 -1.853,0 -3.678,-0.178 -5.477,-0.506 l -35.437,-35.659 c -8.095,13.814 -48.86,87.805 -41.322,164.745 3.727,38.042 20.407,65.591 42.408,86.46 L 264.245,511.854 C 382.181,508.122 479.993,424.632 505.507,313.53 Z"
         style="fill:#171719"
         inkscape:connector-curvature="0" />
      <path
         id="path4141"
         d="m 373.975,197.153 c 0,0 4.212,32.658 -13.57,45.761 0,0 19.576,-98.368 -131.842,-188.937 6.562,13.565 10.49,30.678 10.49,49.298 0,44.002 -21.87,79.672 -48.848,79.672 -17.132,0 -32.195,-14.396 -40.913,-36.165 -8.095,13.814 -48.861,87.805 -41.322,164.745 9.109,92.981 95.575,123.305 148.064,146.497 0,0 88.293,-22.737 128.707,-90.326 37.913,-63.414 15.611,-144.168 -10.766,-170.545 z"
         style="fill:#ffa91f"
         inkscape:connector-curvature="0" />
      <path
         id="path4143"
         d="m 373.975,197.153 c 0,0 4.212,32.658 -13.57,45.761 0,0 17.102,-85.966 -104.373,-171.161 l 0,386.271 c 0,0 88.293,-22.737 128.707,-90.326 37.915,-63.414 15.613,-144.168 -10.764,-170.545 z"
         style="fill:#ff8800"
         inkscape:connector-curvature="0" />
      <path
         id="path4145"
         d="m 256.031,195.678 c 0,0 69.109,60.017 52.491,129.434 0,0 28.697,-16.939 40.92,-49.336 0,0 14.284,119.429 -93.41,149.158 0,0 -78.858,-29.652 -76.599,-103.756 0,0 18.383,22.935 31.219,26.68 0,0 -10.385,-24.364 0.274,-54.7 11.444,-32.581 29.606,-51.992 45.105,-97.48 z"
         style="fill:#ffe670"
         inkscape:connector-curvature="0" />
      <path
         id="path4147"
         d="m 349.442,275.775 c -12.223,32.399 -40.92,49.336 -40.92,49.336 16.617,-69.417 -52.491,-129.434 -52.491,-129.434 l 0,229.256 c 107.694,-29.729 93.411,-149.158 93.411,-149.158 z"
         style="fill:#ffcf00"
         inkscape:connector-curvature="0" />
      <g
         id="g4149">
</g>
      <g
         id="g4151">
</g>
      <g
         id="g4153">
</g>
      <g
         id="g4155">
</g>
      <g
         id="g4157">
</g>
      <g
         id="g4159">
</g>
      <g
         id="g4161">
</g>
      <g
         id="g4163">
</g>
      <g
         id="g4165">
</g>
      <g
         id="g4167">
</g>
      <g
         id="g4169">
</g>
      <g
         id="g4171">
</g>
      <g
         id="g4173">
</g>
      <g
         id="g4175">
</g>
      <g
         id="g4177">
</g>
    </g>
    <text
       xml:space="preserve"
       style="font-style:normal;font-variant:normal;font-weight:normal;font-stretch:normal;font-size:40.47367096px;line-height:125%;font-family:'MS Reference Sans Serif';-inkscape-font-specification:'MS Reference Sans Serif';letter-spacing:0px;word-spacing:0px;fill:#000000;fill-opacity:1;stroke:none;stroke-width:1px;stroke-linecap:butt;stroke-linejoin:miter;stroke-opacity:1"
       x="89.136742"
       y="1004.5085"
       id="text4208"
       sodipodi:linespacing="125%"><tspan
         sodipodi:role="line"
         id="tspan4210"
         x="89.136742"
         y="1004.5085"
         style="font-style:normal;font-variant:normal;font-weight:bold;font-stretch:normal;font-size:22.5px;font-family:'Kozuka Gothic Pro';-inkscape-font-specification:'Kozuka Gothic Pro Bold';text-align:center;text-anchor:middle;fill:#800000">Pellet Stove</tspan><tspan
         sodipodi:role="line"
         x="89.136742"
         y="1032.6335"
         id="tspan4212"
         style="font-style:normal;font-variant:normal;font-weight:bold;font-stretch:normal;font-size:22.5px;font-family:'Kozuka Gothic Pro';-inkscape-font-specification:'Kozuka Gothic Pro Bold';text-align:center;text-anchor:middle;fill:#ffffff">Web Control</tspan></text>
    <text
       xml:space="preserve"
       style="font-style:normal;font-variant:normal;font-weight:normal;font-stretch:normal;font-size:48px;line-height:125%;font-family:'MS Reference Sans Serif';-inkscape-font-specification:'MS Reference Sans Serif';letter-spacing:0px;word-spacing:0px;fill:#000000;fill-opacity:1;stroke:none;stroke-width:1px;stroke-linecap:butt;stroke-linejoin:miter;stroke-opacity:1"
       x="28.826036"
       y="1049.3622"
       id="text4214"
       sodipodi:linespacing="125%"><tspan
         sodipodi:role="line"
         x="28.826036"
         y="1049.3622"
         id="tspan4218"
         style="font-style:normal;font-variant:normal;font-weight:bold;font-stretch:normal;font-size:10px;font-family:'Kozuka Gothic Pro';-inkscape-font-specification:'Kozuka Gothic Pro Bold'">©2017 Giovanni Bernardo</tspan></text>
  </g>
</svg>
